<svg height="55" width="79" xmlns="http://www.w3.org/2000/svg"><g fill="none" fill-rule="evenodd"><path d="m33.93 1.5 41.65 34.1-17.99 17.98a2.68 2.68 0 0 1 -3.78 0l-15.15-15.15a2.68 2.68 0 0 0 -3.79 0l-15.14 15.15a2.68 2.68 0 0 1 -3.79 0l-15.14-15.15a2.68 2.68 0 0 1 0-3.79z" fill="#19abff"/><g transform="translate(0 1)"><path d="m35.82 4.3 28.4 28.4c9.58 8 18.03-10.09 5.3-12.23-.18-.03-.34-.25-.06-.46 5.57-4.53-1.24-11.35-5.78-5.85-.14.17-.33.06-.33-.16.05-3.69-6-3.75-5.85.03.01.21-.21.31-.38.21l-19.22-12.08a1.68 1.68 0 0 0 -2.08.24 1.34 1.34 0 0 0 0 1.9z" fill="#fff"/><path d="m56.48 12.25a4.1 4.1 0 0 1 3.91-2.38c1.6.01 3.03.76 3.76 2.03 2.38-1.69 5.23-1.47 7.16.48 1.96 1.96 2.14 4.85.36 7.25 5.15 1.76 6.91 6.63 4.79 11.31-2.36 5.2-8.08 6.98-13.1 2.79l-.1-.08-28.4-28.41a2.68 2.68 0 0 1 0-3.8c1-.99 2.56-1.16 3.75-.41z" stroke="#19abff" stroke-width="2.68"/></g><path d="m66.88 24.06a2.96 2.96 0 0 1 -.99 5.6" stroke="#19abff" stroke-linecap="round" stroke-linejoin="round" stroke-width="1.34"/></g></svg>